<svg xmlns="http://www.w3.org/2000/svg">
    <defs>
        <symbol id="javascript" viewBox="0 0 120 120" >
            <path fill="#F7DF1E" d="M2.25488 0H117.745V120H2.25488V0Z"/>
            <path fill="#1F2626" d="M32.6203 100.28L41.4584 94.7229C43.1635 97.8641 44.7145 100.522 48.435 100.522C52.0012 100.522 54.2496 99.0723 54.2496 93.4342V55.0913H65.1028V93.5936C65.1028 105.274 58.5136 110.59 48.9002 110.59C40.2181 110.59 35.1783 105.918 32.6201 100.28"/>
            <path fill="#1F2626" d="M71 99.0723L79.837 93.7559C82.1633 97.7033 85.1868 100.603 90.5357 100.603C95.0326 100.603 97.9003 98.2668 97.9003 95.0447C97.9003 91.1782 94.9545 89.8087 89.9929 87.554L87.2803 86.3449C79.4499 82.8818 74.2555 78.5321 74.2555 69.3491C74.2555 60.8912 80.4574 54.4468 90.1483 54.4468C97.048 54.4468 102.01 56.9441 105.575 63.4689L97.125 69.1071C95.2644 65.6437 93.2493 64.2746 90.1485 64.2746C86.9699 64.2746 84.9542 66.3689 84.9542 69.1071C84.9542 72.4904 86.9699 73.8601 91.6209 75.9546L94.334 77.1628C103.56 81.2711 108.754 85.4593 108.754 94.8835C108.754 105.034 101.079 110.591 90.7685 110.591C80.6904 110.591 74.1782 105.597 71.0002 99.0723"/>
        </symbol>

        <symbol id="typescript" viewBox="0 0 120 120">
            <path fill="#007ACC" d="M0 60V120H60H120V60V0H60H0V60Z"/>
            <path fill="white" d="M26.5373 60.3979L26.4992 65.3122H34.3087H42.1182L42.1182 87.5026V109.693H47.6421H53.1659V87.5026L53.1659 65.3122H60.9754H68.7849V60.4931C68.7849 57.8264 68.7278 55.5979 68.6516 55.5407C68.5944 55.4645 59.0897 55.4264 47.5659 55.4455L26.5944 55.5026L26.5373 60.3979Z" />
            <path fill="white" d="M96.8265 55.3636C99.8741 56.1255 102.198 57.4779 104.331 59.6874C105.436 60.8684 107.074 63.0208 107.207 63.535C107.246 63.6874 102.026 67.1922 98.8646 69.1541C98.7503 69.2303 98.2931 68.7351 97.7789 67.9731C96.236 65.7255 94.6169 64.7541 92.1408 64.5827C88.5027 64.335 86.1598 66.2398 86.1789 69.4208C86.1789 70.3541 86.3122 70.9065 86.6931 71.6684C87.4931 73.3255 88.9789 74.316 93.6455 76.3351C102.236 80.0303 105.912 82.4684 108.198 85.935C110.75 89.8017 111.322 95.9731 109.588 100.564C107.684 105.554 102.96 108.945 96.3122 110.068C94.255 110.43 89.3789 110.373 87.1693 109.973C82.3503 109.116 77.7789 106.735 74.9598 103.611C73.855 102.392 71.7027 99.2112 71.836 98.9827C71.8931 98.9065 72.3884 98.6017 72.9408 98.2779C73.4741 97.9731 75.4931 96.8112 77.3979 95.7065L80.8455 93.7065L81.5693 94.7731C82.5789 96.316 84.7884 98.4303 86.1217 99.135C89.9503 101.154 95.2074 100.868 97.7979 98.5446C98.9027 97.535 99.3598 96.4874 99.3598 94.9446C99.3598 93.5541 99.1884 92.9446 98.4646 91.897C97.5312 90.5636 95.6265 89.4398 90.2169 87.097C84.0265 84.4303 81.3598 82.7731 78.9217 80.1446C77.5122 78.6208 76.1789 76.1827 75.6265 74.1446C75.1693 72.4493 75.055 68.2017 75.4169 66.4874C76.6931 60.5065 81.2074 56.335 87.7217 55.097C89.836 54.697 94.7503 54.8493 96.8265 55.3636Z"/>
        </symbol>

        <symbol id="docker" viewBox="0 0 120 120">
            <path fill="#2396ED" d="M117.523 49.7464C114.821 47.8714 108.628 47.1683 103.787 48.1058C103.224 43.4183 100.634 39.3172 96.1307 35.6844L93.5413 33.8094L91.7394 36.5047C89.488 40.0203 88.3621 44.9422 88.6996 49.6297C88.8121 51.2698 89.375 54.1995 91.0639 56.7776C89.488 57.7151 86.2227 58.887 81.9444 58.887H0.541279L0.316279 59.8245C-0.472159 64.5116 -0.472159 79.1595 8.76034 90.4091C15.741 98.9633 26.0994 103.299 39.7227 103.299C69.2211 103.299 91.0639 89.1195 101.31 63.4569C105.363 63.5741 114.033 63.4569 118.424 54.6678C118.536 54.4334 118.761 53.9647 119.549 52.2073L120 51.2698L117.523 49.7464ZM65.6183 16.7009H53.2339V28.4192H65.6183V16.7009ZM65.6183 30.763H53.2339V42.4812H65.6183V30.7625V30.763ZM50.9816 30.763H38.5972V42.4812H50.9816V30.7625V30.763ZM36.3449 30.763H23.96V42.4812H36.3449V30.7625V30.763ZM21.7082 44.825H9.32331V56.5433H21.7077V44.8245L21.7082 44.825ZM36.3449 44.825H23.96V56.5433H36.3449V44.8245V44.825ZM50.9816 44.825H38.5972V56.5433H50.9816V44.8245V44.825ZM65.6188 44.825H53.2335V56.5433H65.6188V44.8245V44.825ZM80.2555 44.825H67.8702V56.5433H80.2555V44.8245V44.825Z"/>
        </symbol>
    </defs>
</svg>
